<svg width="11" height="11" viewBox="0 0 11 11" fill="none" xmlns="http://www.w3.org/2000/svg">
<path d="M5 4H6V3H5V4ZM5.5 9.5C3.295 9.5 1.5 7.705 1.5 5.5C1.5 3.295 3.295 1.5 5.5 1.5C7.705 1.5 9.5 3.295 9.5 5.5C9.5 7.705 7.705 9.5 5.5 9.5ZM5.5 0.5C4.84339 0.5 4.19321 0.629329 3.58658 0.880602C2.97995 1.13188 2.42876 1.50017 1.96447 1.96447C1.02678 2.90215 0.5 4.17392 0.5 5.5C0.5 6.82608 1.02678 8.09785 1.96447 9.03553C2.42876 9.49983 2.97995 9.86812 3.58658 10.1194C4.19321 10.3707 4.84339 10.5 5.5 10.5C6.82608 10.5 8.09785 9.97322 9.03553 9.03553C9.97322 8.09785 10.5 6.82608 10.5 5.5C10.5 4.84339 10.3707 4.19321 10.1194 3.58658C9.86812 2.97995 9.49983 2.42876 9.03553 1.96447C8.57124 1.50017 8.02005 1.13188 7.41342 0.880602C6.80679 0.629329 6.15661 0.5 5.5 0.5ZM5 8H6V5H5V8Z" fill="#F36969"/>
</svg>